<svg xmlns="http://www.w3.org/2000/svg" width="1368" height="222"><path fill-rule="evenodd" d="M245.484 4.484l872.73.066s23.383.32 39.42 2.339c10.919 1.375 20.456 4.046 25.866 5.892 2.449.836 5.138 2.004 7.668 3.492 6.881 4.048 12.994 9.472 12.994 9.472L1315.8 112.9s11.282 7.135 15.166 13.565c.997 1.651 1.623 3.841 1.347 5.207-3.619 13.102-44.154 12.876-69.407 12.875-60.16.167-120.745-.214-180.906-.047H108c-14.98.002-42.307-.019-55.849-3.266-3.708-.889-7.711-2.154-10.758-3.93-2.59-1.51-4.488-3.442-4.926-5.272-1.28-5.361 5.959-10.963 5.959-10.963l18.461-14.665s1.727-1.142 3.426-1.812c1.661-.656 6.983-1.149 14.768-1.149 4.87 0 4.095.225 12.079-.361 8.527-.627 15.835-2.336 21.554-4.189C123.735 95.321 130.783 86.96 139 80.5c30.848-26.191 50.864-43.168 50.864-43.168s2.306-1.947 2.091-2.786c-.296-1.156-1.855-1.824-3.633-2.277-4.774-1.215-10.984-1.737-17.715-1.861-1.768-.032-9.263.127-9.626-1.126-.288-.992 2.285-3.001 2.285-3.001s4.416-3.328 9.358-6.942c1.217-.89 3.572-2.369 6.211-3.723 2.425-1.244 5.098-2.368 7.188-3.148 11.207-4.184 24.216-5.451 28.957-6.072 12.085-1.581 30.504-1.912 30.504-1.912z"/></svg>