<svg xmlns="http://www.w3.org/2000/svg" width="1068" height="186"><path fill-rule="evenodd" d="M197.626 12.405l672.175.051s18.01.246 30.361 1.801c8.41 1.059 15.756 3.116 19.922 4.538a32.544 32.544 0 0 1 5.906 2.69c5.3 3.118 10.008 7.295 10.008 7.295l85.984 67.127s8.689 5.495 11.68 10.447c.769 1.272 1.251 2.959 1.038 4.011-2.787 10.091-34.007 9.917-53.457 9.916-46.336.128-92.998-.164-139.334-.036H91.735c-11.537.001-32.585-.015-43.015-2.515-2.856-.685-5.939-1.659-8.285-3.027-1.995-1.163-3.457-2.651-3.794-4.061-.987-4.129 4.589-8.444 4.589-8.444l14.219-11.295s1.313-.924 2.638-1.395c1.686-.599 4.972-1.041 10.969-1.041 3.751 0 6.279.079 9.709-.185 6.566-.506 12.196-1.736 16.601-3.164 8.488-2.751 13.917-9.19 20.245-14.166 23.759-20.172 39.176-33.248 39.176-33.248s1.776-1.499 1.61-2.146c-.228-.89-1.428-1.404-2.798-1.753-3.677-.936-8.413-1.213-13.675-1.324-1.362-.029-6.776-.012-7.055-.977-.222-.764 1.432-2.311 1.432-2.311s3.401-2.563 7.208-5.347c.937-.685 2.751-1.825 4.783-2.868a54.48 54.48 0 0 1 5.536-2.424c8.632-3.223 18.652-4.199 22.303-4.676 9.308-1.219 23.495-1.473 23.495-1.473z"/></svg>